<?xml version="1.0" standalone="no"?>
<svg version="1.1" xmlns="http://www.w3.org/2000/svg" viewBox="0 0 1431 737" width="129px" height="66px">
<style type="text/css">
.discuzblue{fill:#0B58AD;}
.discuzorange{fill:#F4A62F;}
</style>
<g class="discuzblue">
<path d="M 137.1 495.2 h -86 l -43 204 c 0 0 4.7 21 19 21 c 14.1 0 202 25.1 238 -108 C 298.8 487.6 137.1 495.2 137.1 495.2 Z M 210.1 591.2 c -14.5 81.8 -39.6 97.7 -69 107 c -34.4 10.9 -77 5 -77 5 l 42 -193 c 3 0.4 47.1 0.8 56.8 2.1 C 189.9 516 220.4 533 210.1 591.2 Z"/>
<path d="M 324.1 502.2 c 0 0 -41.7 192 -43 199 s 3.7 19 12 19 c 7.5 0 36 0 36 0 l 48 -218 H 324.1 L 324.1 502.2 Z"/>
<path d="M 601.1 506.2 l -6 18 c 0 0 -95.4 -28.4 -122 8 c -19 26 34.7 51.6 42 55 c 13.7 6.3 85.7 24.7 73 71 c -12.1 44.4 -64.3 61.7 -119 62 s -113 0 -113 0 l 3 -15 c 0 0 68.7 2.7 111 0 s 53.5 -15.4 57 -34 c 3.2 -17.3 -1.6 -32 -61 -55 c -39.4 -15.3 -57 -40.3 -53 -66 c 2.9 -18.3 27.2 -44.1 74 -52 C 548.4 487.9 601.1 506.2 601.1 506.2 Z"/>
<path d="M 786.1 691.2 l -4 19 c 0 0 -16.7 6.1 -44 9 c -22.3 2.4 -53 0.9 -86 -14 c -48.7 -22 -58.5 -79.8 -38.6 -121.8 c 17.5 -36.9 33.5 -52.4 66.6 -69.2 c 33.9 -17.2 63.8 -18.8 71 -19 c 23.1 -0.5 118.3 0 126 0 s 17.7 4.7 16 16 c -1.7 11.3 -21.8 127 -25 148 c -3.3 22 16.3 33.7 42 34 s 57.6 -4.7 70 -52 c 9.9 -37.8 27 -129 27 -129 h 54 c 0 0 -34.7 195.3 -35 198 s -3.7 7 -8 7 c -5 0 -46.1 0 -46.1 0 l 7.1 -32 c 0 0 -16 35.4 -83 35 s -88.7 -29.1 -85 -71 c 3.8 -43 26 -137 26 -137 s -82.2 -8.2 -125 15 c -33.9 18.4 -54.9 62.7 -50 96 c 10.4 70.3 59.8 81.4 92 78 C 769.3 699.6 786.1 691.2 786.1 691.2 Z"/>
<path d="M 1095.1 512.2 l -3 20 l 124 -1 c 0 0 -132.3 130 -145 142 s -14 47 -14 47 h 197 l 1 -17 h -142 c 0 0 -4 -5 9 -14 s 132.4 -121.3 134 -123 c 8.8 -9.4 13.1 -20.9 14 -31 c 1.3 -15 0 -23 0 -23 H 1095.1 L 1095.1 512.2 Z"/>
<path d="M 1338.1 476.2 l 7 174 l 26 4 l 36 -170 L 1338.1 476.2 Z"/>
<path d="M 1340.1 687.2 c -0.3 1 0 29 0 29 l 30 2 l 2 -31 C 1372.1 687.2 1340.4 686.2 1340.1 687.2 Z"/>
<path d="M 739.9 297.7 c 0.5 -2.8 0.2 -4.6 -0.8 -5.6 c -1.5 -0.5 -3.7 -0.7 -6.7 -0.7 h -9.7 c -2 -6.5 -3.8 -14 -5.3 -22.4 h -21 l 4.5 22.4 h -22.5 l -2.3 15.4 h 38.2 c 2 0 2.7 0.7 2.3 2.1 c -2 4.2 -5 9.1 -9 14.7 c -4.5 5.6 -10.3 11.4 -17.2 17.5 c -7.5 6.5 -15 11.9 -22.5 16.1 l -6 20.3 c 8 -3.3 16.5 -8.2 25.5 -14.7 l -9.8 66.4 h 21 l 12.7 -86 c 12 -11.6 20.2 -22.6 24.7 -32.9 C 738.6 305.7 739.9 301.5 739.9 297.7 L 739.9 297.7 Z M 728.6 348.1 h -17.2 l 6.8 32.9 h 20.2 C 734.4 369.3 731.1 358.3 728.6 348.1 L 728.6 348.1 Z M 825.7 318.8 h -33.8 l 7 -50.6 h -19.7 l -7 50.6 h -31.6 l -2.8 16.9 h 31.6 l -11.3 75.2 h -38.7 l -2.8 16.9 h 99.1 l 2.8 -16.9 h -39.9 l 10.5 -75.2 h 34.5 L 825.7 318.8 Z"/>
<path d="M 862.4 427.8 h 143.1 l 2 -15.6 H 884 l 17 -120.9 h 119 l 2.6 -16.3 h -138 L 862.4 427.8 Z M 980.5 300.3 L 951 335.1 c -6.9 -11.2 -13.9 -22.8 -20.8 -34.8 h -24.3 l 29.5 51.6 l -46.8 48.5 h 33.8 l 26 -28.4 l 19.9 28.4 h 29.5 L 963.1 354 l 44.2 -53.7 H 980.5 Z"/>
<path d="M 1190 304.7 c 1.9 -13.1 3.5 -25.8 4.9 -38 h -19.7 c -1.4 12.2 -3.1 24.9 -4.9 38 H 1145 l 4.2 15.5 h 19 c -2.8 15.5 -6.8 30.9 -12 46.4 c -5.2 15.9 -11.5 30.9 -19 45 c -3.8 -15 -7 -30.2 -9.8 -45.7 h -18.3 c 1.9 11.7 4.2 24.4 7 38 h -33 c 10.8 -22 20.1 -43.6 28.1 -64.7 h 32.3 l 2.8 -16.2 H 1069 l -2.8 16.2 h 23.9 c -9.4 26.3 -21.1 53.2 -35.2 80.9 h 56.3 l 6.3 -11.3 l 2.1 11.3 h 13.4 l -5.6 8.4 h 22.5 c 18.3 -32.8 30.7 -68.9 37.3 -108.3 h 14.8 c 1.4 0 2.3 0.2 2.8 0.7 c 0 0.9 0 1.6 0 2.1 c -2.8 26.7 -7.3 56.5 -13.4 89.3 h -23.2 l 4.2 16.2 l 36.6 0.7 c 6.6 -42.2 11.7 -79.7 15.5 -112.5 c 0.5 -4.7 0 -8 -1.4 -9.8 c -1.4 -1.4 -4.2 -2.1 -8.4 -2.1 L 1190 304.7 L 1190 304.7 L 1190 304.7 Z M 1081.1 276.6 l -2.1 16.2 h 66.8 l 2.1 -16.2 H 1081.1 Z"/>
<path d="M 1355 298.4 l 2.8 -30.9 H 1336 c 0 8 -0.9 18.3 -2.8 30.9 h -54.1 l 4.2 16.9 h 47.1 c -8 41.7 -33.3 79.5 -75.9 113.2 h 30.9 c 17.8 -15 32.6 -32.6 44.3 -52.7 c 11.3 -19.7 18.7 -39.8 22.5 -60.5 h 43.6 c 1.9 0 2.8 1.2 2.8 3.5 l -13.4 92.1 H 1343 l 4.9 17.6 h 56.3 l 16.2 -118.1 c 0.5 -3.7 0 -6.8 -1.4 -9.1 c -1.4 -1.9 -3.5 -2.8 -6.3 -2.8 L 1355 298.4 L 1355 298.4 Z"/>
</g>
<g class="discuzorange">
<path d="M 218.1 25.2 c 24.2 0 47.6 3.5 69.6 10.3 c 21 6.5 39.9 15.8 56 27.6 c 31.9 23.4 49.4 53.9 49.4 86.1 c 0 36.1 -22.4 70.4 -61.4 94.1 l -13.2 8.1 l 7.6 13.5 c 4 7.1 6 14.6 6 22.3 c 0 14.8 -7.6 28.9 -21.3 39.8 c -14.8 11.7 -34.8 18.2 -56.2 18.2 s -41.3 -6.5 -56.2 -18.2 c -13.7 -10.9 -21.3 -25 -21.3 -39.8 c 0 -1 0 -2.1 0.1 -3.1 l 1 -13.7 l -13.4 -3.1 c -35.2 -8 -66.7 -24.3 -88.6 -45.8 c -21.7 -21.2 -33.1 -46.3 -33.1 -72.3 c 0 -32.2 17.5 -62.7 49.4 -86.1 c 16.1 -11.8 34.9 -21.1 56 -27.6 C 170.5 28.7 193.9 25.2 218.1 25.2 M 218.1 9.2 c -105.5 0 -191 62.7 -191 140 c 0 62.8 56.4 116 134.2 133.7 c -0.1 1.4 -0.2 2.9 -0.2 4.3 c 0 40.9 41.9 74 93.5 74 s 93.5 -33.1 93.5 -74 c 0 -10.8 -2.9 -21 -8.1 -30.2 c 42.2 -25.7 69.1 -64.4 69.1 -107.8 C 409.1 71.9 323.6 9.2 218.1 9.2 L 218.1 9.2 Z"/>
<path d="M 362.1 390.2 c 20.1 0 37 11.9 37 26 s -16.9 26 -37 26 s -37 -11.9 -37 -26 S 342 390.2 362.1 390.2 M 362.1 374.2 c -29.3 0 -53 18.8 -53 42 s 23.7 42 53 42 s 53 -18.8 53 -42 S 391.4 374.2 362.1 374.2 L 362.1 374.2 Z"/>
</g>
</svg>
